<?xml version="1.0" encoding="UTF-8"?>
<svg width="100px" height="96px" viewBox="0 0 100 96" version="1.1" xmlns="http://www.w3.org/2000/svg" xmlns:xlink="http://www.w3.org/1999/xlink">
    <title>wordmark-stack/large-outlinetext</title>
    <defs>
        <linearGradient x1="15.8779708%" y1="0%" x2="74.5%" y2="100%" id="linearGradient-1">
            <stop stop-color="#FFFFFF" stop-opacity="0.5" offset="0%"></stop>
            <stop stop-color="#000000" stop-opacity="0.0346679688" offset="100%"></stop>
        </linearGradient>
        <polygon id="path-2" points="48 22 48 42 62 32"></polygon>
        <linearGradient x1="17.6168369%" y1="0%" x2="74.5%" y2="100%" id="linearGradient-3">
            <stop stop-color="#FFFFFF" stop-opacity="0.5" offset="0%"></stop>
            <stop stop-color="#000000" stop-opacity="0.5" offset="100%"></stop>
        </linearGradient>
        <polygon id="path-4" points="5 22 5 42 19 32"></polygon>
    </defs>
    <g id="wordmark-stack/large-outlinetext" stroke="none" stroke-width="1" fill="none" fill-rule="evenodd">
        <g id="Gropius" transform="translate(7.368000, 63.320000)" fill="#000000" fill-rule="nonzero">
            <path d="M8.16,2.568 C9.344,2.568 10.42,2.756 11.388,3.132 C12.356,3.508 13.2,4.024 13.92,4.68 L11.64,7.032 C11.096,6.568 10.58,6.232 10.092,6.024 C9.604,5.816 9.048,5.712 8.424,5.712 C7.224,5.712 6.284,6.176 5.604,7.104 C4.924,8.032 4.584,9.448 4.584,11.352 C4.584,12.744 4.696,13.844 4.92,14.652 C5.144,15.46 5.484,16.04 5.94,16.392 C6.396,16.744 6.984,16.92 7.704,16.92 C8.44,16.92 9.096,16.76 9.672,16.44 L9.672,13.032 L7.776,13.032 L7.344,9.984 L13.968,9.984 L13.968,18.288 C13.088,18.864 12.104,19.312 11.016,19.632 C9.928,19.952 8.856,20.112 7.8,20.112 C2.6,20.112 0,17.184 0,11.328 C0,9.504 0.356,7.932 1.068,6.612 C1.78,5.292 2.752,4.288 3.984,3.6 C5.216,2.912 6.608,2.568 8.16,2.568 Z" id="G"></path>
            <path d="M23.52,6.504 C23.936,6.504 24.368,6.576 24.816,6.72 L24.12,10.848 C23.704,10.72 23.32,10.656 22.968,10.656 C22.248,10.656 21.7,10.9 21.324,11.388 C20.948,11.876 20.656,12.608 20.448,13.584 L20.448,19.68 L16.176,19.68 L16.176,6.888 L19.896,6.888 L20.256,9.312 C20.528,8.464 20.96,7.784 21.552,7.272 C22.144,6.76 22.8,6.504 23.52,6.504 Z" id="r"></path>
            <path d="M31.416,6.456 C33.416,6.456 34.984,7.056 36.12,8.256 C37.256,9.456 37.824,11.136 37.824,13.296 C37.824,14.672 37.568,15.872 37.056,16.896 C36.544,17.92 35.804,18.712 34.836,19.272 C33.868,19.832 32.728,20.112 31.416,20.112 C29.416,20.112 27.848,19.512 26.712,18.312 C25.576,17.112 25.008,15.432 25.008,13.272 C25.008,11.896 25.264,10.696 25.776,9.672 C26.288,8.648 27.028,7.856 27.996,7.296 C28.964,6.736 30.104,6.456 31.416,6.456 Z M31.416,9.552 C30.728,9.552 30.22,9.852 29.892,10.452 C29.564,11.052 29.4,11.992 29.4,13.272 C29.4,14.6 29.564,15.556 29.892,16.14 C30.22,16.724 30.728,17.016 31.416,17.016 C32.104,17.016 32.612,16.716 32.94,16.116 C33.268,15.516 33.432,14.576 33.432,13.296 C33.432,11.984 33.268,11.032 32.94,10.44 C32.612,9.848 32.104,9.552 31.416,9.552 Z" id="o"></path>
            <path d="M47.208,6.456 C48.84,6.456 50.06,7.048 50.868,8.232 C51.676,9.416 52.08,11.088 52.08,13.248 C52.08,14.56 51.872,15.736 51.456,16.776 C51.04,17.816 50.444,18.632 49.668,19.224 C48.892,19.816 48,20.112 46.992,20.112 C45.712,20.112 44.696,19.68 43.944,18.816 L43.944,24.624 L39.672,25.056 L39.672,6.888 L43.464,6.888 L43.632,8.232 C44.128,7.624 44.696,7.176 45.336,6.888 C45.976,6.6 46.6,6.456 47.208,6.456 Z M45.624,17.04 C46.984,17.04 47.664,15.792 47.664,13.296 C47.664,11.84 47.512,10.852 47.208,10.332 C46.904,9.812 46.44,9.552 45.816,9.552 C45.08,9.552 44.456,10 43.944,10.896 L43.944,16.032 C44.184,16.384 44.436,16.64 44.7,16.8 C44.964,16.96 45.272,17.04 45.624,17.04 Z" id="p"></path>
            <path d="M58.296,19.68 L54.024,19.68 L54.024,6.888 L58.296,6.888 L58.296,19.68 Z M56.16,0 C56.88,0 57.468,0.224 57.924,0.672 C58.38,1.12 58.608,1.68 58.608,2.352 C58.608,3.024 58.38,3.584 57.924,4.032 C57.468,4.48 56.88,4.704 56.16,4.704 C55.44,4.704 54.852,4.48 54.396,4.032 C53.94,3.584 53.712,3.024 53.712,2.352 C53.712,1.68 53.94,1.12 54.396,0.672 C54.852,0.224 55.44,0 56.16,0 Z" id="i"></path>
            <path d="M71.952,19.68 L68.232,19.68 L68.064,18.168 C67.168,19.464 65.896,20.112 64.248,20.112 C63.064,20.112 62.172,19.756 61.572,19.044 C60.972,18.332 60.672,17.344 60.672,16.08 L60.672,6.888 L64.944,6.888 L64.944,15.528 C64.944,16.072 65.028,16.452 65.196,16.668 C65.364,16.884 65.616,16.992 65.952,16.992 C66.256,16.992 66.556,16.884 66.852,16.668 C67.148,16.452 67.424,16.136 67.68,15.72 L67.68,6.888 L71.952,6.888 L71.952,19.68 Z" id="u"></path>
            <path d="M79.272,6.456 C80.2,6.456 81.084,6.6 81.924,6.888 C82.764,7.176 83.48,7.568 84.072,8.064 L82.536,10.416 C81.512,9.776 80.48,9.456 79.44,9.456 C78.992,9.456 78.66,9.524 78.444,9.66 C78.228,9.796 78.12,9.984 78.12,10.224 C78.12,10.432 78.176,10.6 78.288,10.728 C78.4,10.856 78.636,10.996 78.996,11.148 C79.356,11.3 79.928,11.496 80.712,11.736 C82.024,12.12 82.992,12.62 83.616,13.236 C84.24,13.852 84.552,14.712 84.552,15.816 C84.552,16.68 84.3,17.436 83.796,18.084 C83.292,18.732 82.596,19.232 81.708,19.584 C80.82,19.936 79.816,20.112 78.696,20.112 C77.608,20.112 76.588,19.94 75.636,19.596 C74.684,19.252 73.88,18.776 73.224,18.168 L75.264,15.888 C75.76,16.272 76.292,16.576 76.86,16.8 C77.428,17.024 78,17.136 78.576,17.136 C79.088,17.136 79.484,17.052 79.764,16.884 C80.044,16.716 80.184,16.464 80.184,16.128 C80.184,15.872 80.124,15.672 80.004,15.528 C79.884,15.384 79.656,15.244 79.32,15.108 C78.984,14.972 78.408,14.784 77.592,14.544 C75.112,13.808 73.872,12.456 73.872,10.488 C73.872,9.736 74.088,9.052 74.52,8.436 C74.952,7.82 75.572,7.336 76.38,6.984 C77.188,6.632 78.152,6.456 79.272,6.456 Z" id="s"></path>
        </g>
        <g id="Group" transform="translate(18.000000, 0.000000)">
            <g id="arrow-out">
                <use fill="#FFBF2A" xlink:href="#path-2"></use>
                <use fill-opacity="0.87" fill="url(#linearGradient-1)" style="mix-blend-mode: overlay;" xlink:href="#path-2"></use>
            </g>
            <path d="M47.9992723,32.876 L54.3577709,34.0322602 L53.6422291,37.9677398 L47.9992723,36.94 L47.9992723,32.876 Z M48,22 L49.4612723,23.044 L47.9992723,24.344 L48,22 Z" id="bug-shadow" fill="#000000" opacity="0.200895764"></path>
            <path d="M32,10 C37.5228475,10 42,14.4771525 42,20 C42,20.6842022 41.9312861,21.3523553 41.8003827,21.9979351 C42.1020247,22.2244646 42.3919548,22.468923 42.667136,22.7288319 L49.6712723,16.5051814 L52.3287277,19.4948186 L44.9814948,26.0267046 C45.5093621,27.2445761 45.801961,28.588118 45.801961,30 C45.801961,30.4880794 45.766228,30.9752743 45.6951477,31.4576891 L54.3577709,33.0322602 L53.6422291,36.9677398 L44.9232723,35.381 L43.7292723,41.351 L51.5364426,50.7196312 L48.4635574,53.2803688 L42.0772178,45.6160538 C40.2605938,48.290639 37.1996079,50 33.801961,50 L30.198039,50 C26.8003921,50 23.7394062,48.290639 21.9227822,45.6160538 L15.5364426,53.2803688 L12.4635574,50.7196312 L20.2692723,41.351 L18.7792723,33.901 L21.4409301,32 L18.2006973,29.6873698 C18.2396369,28.4061335 18.5255175,27.1669285 19.0201701,26.0270086 L11.6712723,19.4948186 L14.3287277,16.5051814 L21.330517,22.7292604 C21.605343,22.4691818 21.8956148,22.2240371 22.2002606,21.9954338 C22.0686428,21.351664 22,20.6838482 22,20 C22,14.4771525 26.4771525,10 32,10 Z M32,14 C28.6862915,14 26,16.6862915 26,20 L26.005897,20.2431759 C26.0824967,20.2260017 26.1594929,20.2096702 26.2368777,20.1941932 C26.8826095,20.0650469 27.5395192,20 28.198039,20 L35.801961,20 C36.5547668,20 37.2881439,20.0831844 37.9934018,20.2408627 L38,20 C38,16.6862915 35.3137085,14 32,14 Z M36.686238,24.0647065 L36.7951167,24.0818151 L36.6735387,24.0628448 L36.6735387,24.0628448 L36.6192723,24.055 L36.5683224,24.0484834 C36.5288964,24.043457 36.4893509,24.0388133 36.4496896,24.034556 C36.3519783,24.0240676 36.2535648,24.015925 36.1545065,24.0101854 L35.801961,24 L28.198039,24 C28.0004831,24 27.8031686,24.009757 27.6068133,24.0292 L27.560046,24.0357545 C27.3797918,24.0532754 27.1998551,24.0808134 27.0213422,24.1165159 L26.7586614,24.1750949 C26.751941,24.1767501 26.7452259,24.1784163 26.7385161,24.1800933 L26.6500884,24.2029028 L26.523964,24.2379164 L26.523964,24.2379164 L26.4282723,24.266 L26.4813164,24.2504253 L26.3732723,24.283 L26.3342723,24.296 L26.2630212,24.3198744 L26.2630212,24.3198744 L26.217341,24.3355772 L26.1422723,24.362 L26.1182723,24.371 L26.1285479,24.3672857 L26.1152723,24.372 L26.1102723,24.374 L26.0909631,24.3811847 L26.0909631,24.3811847 L26.0622723,24.392 L26.000623,24.415772 L26.000623,24.415772 L25.9660999,24.4294344 L25.8265835,24.4872057 L25.8265835,24.4872057 L25.6891659,24.5482178 L25.6550267,24.5640243 L25.6329635,24.5743794 L25.6329635,24.5743794 L25.4313693,24.6741959 L25.4159347,24.6822333 L25.4159347,24.6822333 L25.3400069,24.7226142 L25.3400069,24.7226142 L25.2732723,24.759 L25.2498885,24.7723928 L25.2498885,24.7723928 C25.1157755,24.8479936 24.9851643,24.9284766 24.8582447,25.0135571 L24.7361632,25.0976121 L24.7361632,25.0976121 C24.7009289,25.1225198 24.6657669,25.1479573 24.6309137,25.1737537 L24.6189763,25.1826121 L24.5540226,25.2316288 L24.4550066,25.3090788 L24.4102723,25.345 L24.3032723,25.434 L24.2872723,25.448 L24.276377,25.4576276 L24.276377,25.4576276 L24.2861251,25.4492141 C24.2263414,25.5007005 24.16764,25.5533119 24.1100475,25.607008 L24.0912723,25.624 L24.0702723,25.644 L24.0573083,25.6567768 L24.0573083,25.6567768 L24.0502723,25.663 L24.0227225,25.6900793 L24.0227225,25.6900793 L23.9792723,25.732 L23.9246694,25.7874636 L23.9246694,25.7874636 L23.8460405,25.8688915 C23.8254652,25.8906053 23.8051363,25.9123807 23.7849746,25.9343009 L23.8042723,25.913 L23.6721589,26.0604698 C23.5590647,26.1905835 23.4516718,26.3254157 23.3502645,26.4645398 L23.2982723,26.536 L23.2805464,26.5622135 L23.2805464,26.5622135 L23.2402723,26.62 L23.2042723,26.673 L23.1845396,26.7038154 L23.1845396,26.7038154 L23.1552723,26.748 L23.1496064,26.7575636 L23.1496064,26.7575636 L23.1072723,26.824 L23.0632723,26.895 L23.0329251,26.946764 L23.0329251,26.946764 L23.032161,26.948056 L22.9992723,27.004 L22.9782723,27.04 L22.9712723,27.053 L22.9652723,27.063 L22.9190323,27.1479901 L22.9190323,27.1479901 L22.8852723,27.211 L22.8660395,27.2481897 L22.8660395,27.2481897 L22.8192723,27.339 L22.8624595,27.2551268 C22.7388057,27.4951094 22.631097,27.7437399 22.5404268,27.9993784 L22.478931,28.1820292 C22.213603,29.0141099 22.1269906,29.9145879 22.2554027,30.8289999 L22.314555,31.1766968 L24.314555,41.1766968 C24.394473,41.576287 24.5129939,41.9599253 24.6657675,42.3240456 C25.5297314,44.4507179 27.593065,46 31,46 L33,46 C36.5729167,46 38.4852015,44.5207443 39.3423545,42.33561 L39.3334519,42.3259053 C39.4418913,42.0676954 39.5331034,41.7996639 39.6055361,41.5230831 L39.685445,41.1766968 L40.3195574,38 L40.3202723,37.999 L40.9212291,35 L41.685445,31.1766968 L41.7162291,31 L41.7162723,31 L41.7363408,30.8849497 C41.7800077,30.5921244 41.801961,30.2963339 41.801961,30 C41.801961,29.3152796 41.6872642,28.6573481 41.4760354,28.0443701 L41.460252,27.9991582 L41.391892,27.8155126 L41.3657101,27.7497207 L41.3657101,27.7497207 L41.3387772,27.6843132 C41.3130864,27.6229587 41.2864056,27.5621217 41.2587547,27.5018221 L41.2982723,27.592 L41.202402,27.3824329 C41.1659545,27.3073753 41.1279884,27.2331918 41.0885435,27.1599222 L41.0812723,27.147 L41.0752723,27.136 L41.0682723,27.123 L41.035479,27.0634885 L41.035479,27.0634885 L41.0272723,27.05 L41.0212723,27.04 L40.9807083,26.9681426 L40.9807083,26.9681426 L40.9682723,26.948 L40.8457126,26.7489653 C40.7526854,26.6049375 40.6536571,26.4651492 40.5489813,26.3299541 L40.5272723,26.302 L40.4752723,26.237 L40.4286659,26.1795846 L40.4286659,26.1795846 L40.4016293,26.1471115 L40.3367863,26.0710705 L40.3367863,26.0710705 L40.2732723,25.999 L40.1955343,25.9138274 L40.1955343,25.9138274 L40.1211539,25.8362521 L39.9487278,25.6635917 C39.9350732,25.6505306 39.921357,25.6375334 39.9075798,25.6246005 L39.8882723,25.607 L39.741968,25.4754896 L39.741968,25.4754896 L39.8252723,25.549 L39.8106374,25.5355677 L39.8106374,25.5355677 L39.7212723,25.457 L39.741968,25.4754896 C39.60377,25.3549759 39.4600175,25.2407072 39.3111458,25.1331165 C39.2906635,25.1178727 39.2697475,25.1029671 39.2487323,25.0881929 L39.2782723,25.11 L39.1963749,25.0521933 C39.1577904,25.0256572 39.1188809,24.9995616 39.0796535,24.9739138 L39.0649377,24.9639818 L39.0338076,24.9442353 L39.0012723,24.923 L38.9462723,24.889 L38.9147118,24.8695717 L38.9147118,24.8695717 L38.8972723,24.859 L38.8742723,24.845 L38.8630172,24.8387619 L38.793055,24.7975515 L38.793055,24.7975515 L38.8342723,24.822 L38.7672723,24.783 L38.6782723,24.733 L38.7322723,24.763 L38.6798247,24.7339351 L38.6798247,24.7339351 L38.6582723,24.722 L38.6562723,24.721 L38.6452723,24.715 L38.5982723,24.69 L38.5832723,24.682 L38.5472723,24.664 L38.5142723,24.647 L38.5382723,24.659 L38.5154927,24.6473929 L38.5154927,24.6473929 L38.4434686,24.6112503 L38.4434686,24.6112503 L38.3961329,24.5883999 C38.2935838,24.5391305 38.1894207,24.4926943 38.0837445,24.4491917 L37.8606589,24.3625047 C37.7662315,24.3280125 37.6706946,24.2958252 37.5741163,24.2660107 L37.4802097,24.2378863 L37.4382723,24.226 L37.3483219,24.2011578 L37.3483219,24.2011578 L37.2462723,24.175 L37.3432357,24.1998207 L37.1999757,24.1637419 L37.1999757,24.1637419 L37.1362723,24.149 L37.0975333,24.1402379 L37.0975333,24.1402379 L37.0702723,24.134 L37.0712723,24.134 L37.0662723,24.133 L37.0702723,24.134 L37.0553744,24.1311227 L37.0553744,24.1311227 L36.9832723,24.116 L37.0382723,24.128 L36.9452723,24.109 L36.9382723,24.108 L36.9392723,24.108 L36.9312723,24.106 L36.925741,24.1050676 L36.8322723,24.088 L36.7951167,24.0818151 L36.7951167,24.0818151 L36.8312723,24.088 L36.686238,24.0647065 L36.686238,24.0647065 Z" id="bug" fill="#0C94D8" fill-rule="nonzero"></path>
            <g id="arrow-in">
                <use fill="#00C6EB" xlink:href="#path-4"></use>
                <use fill-opacity="0.32" fill="url(#linearGradient-3)" style="mix-blend-mode: overlay;" xlink:href="#path-4"></use>
            </g>
        </g>
    </g>
</svg>