<?xml version="1.0" encoding="UTF-8"?>
<svg width="138px" height="108px" viewBox="0 0 138 108" version="1.1" xmlns="http://www.w3.org/2000/svg" xmlns:xlink="http://www.w3.org/1999/xlink">
    <title>wordmark-stack/medium-outlinetext</title>
    <defs>
        <linearGradient x1="15.8779708%" y1="0%" x2="74.5%" y2="100%" id="linearGradient-1">
            <stop stop-color="#FFFFFF" stop-opacity="0.5" offset="0%"></stop>
            <stop stop-color="#000000" stop-opacity="0.0346679688" offset="100%"></stop>
        </linearGradient>
        <polygon id="path-2" points="48 22 48 42 62 32"></polygon>
        <linearGradient x1="17.6168369%" y1="0%" x2="74.5%" y2="100%" id="linearGradient-3">
            <stop stop-color="#FFFFFF" stop-opacity="0.5" offset="0%"></stop>
            <stop stop-color="#000000" stop-opacity="0.5" offset="100%"></stop>
        </linearGradient>
        <polygon id="path-4" points="5 22 5 42 19 32"></polygon>
    </defs>
    <g id="wordmark-stack/medium-outlinetext" stroke="none" stroke-width="1" fill="none" fill-rule="evenodd">
        <g id="Gropius" transform="translate(12.324000, 62.760000)" fill="#000000" fill-rule="nonzero">
            <path d="M10.88,3.424 C12.4586667,3.424 13.8933333,3.67466667 15.184,4.176 C16.4746667,4.67733333 17.6,5.36533333 18.56,6.24 L15.52,9.376 C14.7946667,8.75733333 14.1066667,8.30933333 13.456,8.032 C12.8053333,7.75466667 12.064,7.616 11.232,7.616 C9.632,7.616 8.37866667,8.23466667 7.472,9.472 C6.56533333,10.7093333 6.112,12.5973333 6.112,15.136 C6.112,16.992 6.26133333,18.4586667 6.56,19.536 C6.85866667,20.6133333 7.312,21.3866667 7.92,21.856 C8.528,22.3253333 9.312,22.56 10.272,22.56 C11.2533333,22.56 12.128,22.3466667 12.896,21.92 L12.896,17.376 L10.368,17.376 L9.792,13.312 L18.624,13.312 L18.624,24.384 C17.4506667,25.152 16.1386667,25.7493333 14.688,26.176 C13.2373333,26.6026667 11.808,26.816 10.4,26.816 C3.46666667,26.816 7.10542736e-15,22.912 7.10542736e-15,15.104 C7.10542736e-15,12.672 0.474666667,10.576 1.424,8.816 C2.37333333,7.056 3.66933333,5.71733333 5.312,4.8 C6.95466667,3.88266667 8.81066667,3.424 10.88,3.424 Z" id="G"></path>
            <path d="M31.36,8.672 C31.9146667,8.672 32.4906667,8.768 33.088,8.96 L32.16,14.464 C31.6053333,14.2933333 31.0933333,14.208 30.624,14.208 C29.664,14.208 28.9333333,14.5333333 28.432,15.184 C27.9306667,15.8346667 27.5413333,16.8106667 27.264,18.112 L27.264,26.24 L21.568,26.24 L21.568,9.184 L26.528,9.184 L27.008,12.416 C27.3706667,11.2853333 27.9466667,10.3786667 28.736,9.696 C29.5253333,9.01333333 30.4,8.672 31.36,8.672 Z" id="r"></path>
            <path d="M41.888,8.608 C44.5546667,8.608 46.6453333,9.408 48.16,11.008 C49.6746667,12.608 50.432,14.848 50.432,17.728 C50.432,19.5626667 50.0906667,21.1626667 49.408,22.528 C48.7253333,23.8933333 47.7386667,24.9493333 46.448,25.696 C45.1573333,26.4426667 43.6373333,26.816 41.888,26.816 C39.2213333,26.816 37.1306667,26.016 35.616,24.416 C34.1013333,22.816 33.344,20.576 33.344,17.696 C33.344,15.8613333 33.6853333,14.2613333 34.368,12.896 C35.0506667,11.5306667 36.0373333,10.4746667 37.328,9.728 C38.6186667,8.98133333 40.1386667,8.608 41.888,8.608 Z M41.888,12.736 C40.9706667,12.736 40.2933333,13.136 39.856,13.936 C39.4186667,14.736 39.2,15.9893333 39.2,17.696 C39.2,19.4666667 39.4186667,20.7413333 39.856,21.52 C40.2933333,22.2986667 40.9706667,22.688 41.888,22.688 C42.8053333,22.688 43.4826667,22.288 43.92,21.488 C44.3573333,20.688 44.576,19.4346667 44.576,17.728 C44.576,15.9786667 44.3573333,14.7093333 43.92,13.92 C43.4826667,13.1306667 42.8053333,12.736 41.888,12.736 Z" id="o"></path>
            <path d="M62.944,8.608 C65.12,8.608 66.7466667,9.39733333 67.824,10.976 C68.9013333,12.5546667 69.44,14.784 69.44,17.664 C69.44,19.4133333 69.1626667,20.9813333 68.608,22.368 C68.0533333,23.7546667 67.2586667,24.8426667 66.224,25.632 C65.1893333,26.4213333 64,26.816 62.656,26.816 C60.9493333,26.816 59.5946667,26.24 58.592,25.088 L58.592,32.832 L52.896,33.408 L52.896,9.184 L57.952,9.184 L58.176,10.976 C58.8373333,10.1653333 59.5946667,9.568 60.448,9.184 C61.3013333,8.8 62.1333333,8.608 62.944,8.608 Z M60.832,22.72 C62.6453333,22.72 63.552,21.056 63.552,17.728 C63.552,15.7866667 63.3493333,14.4693333 62.944,13.776 C62.5386667,13.0826667 61.92,12.736 61.088,12.736 C60.1066667,12.736 59.2746667,13.3333333 58.592,14.528 L58.592,21.376 C58.912,21.8453333 59.248,22.1866667 59.6,22.4 C59.952,22.6133333 60.3626667,22.72 60.832,22.72 Z" id="p"></path>
            <path d="M77.728,26.24 L72.032,26.24 L72.032,9.184 L77.728,9.184 L77.728,26.24 Z M74.88,0 C75.84,0 76.624,0.298666667 77.232,0.896 C77.84,1.49333333 78.144,2.24 78.144,3.136 C78.144,4.032 77.84,4.77866667 77.232,5.376 C76.624,5.97333333 75.84,6.272 74.88,6.272 C73.92,6.272 73.136,5.97333333 72.528,5.376 C71.92,4.77866667 71.616,4.032 71.616,3.136 C71.616,2.24 71.92,1.49333333 72.528,0.896 C73.136,0.298666667 73.92,0 74.88,0 Z" id="i"></path>
            <path d="M95.936,26.24 L90.976,26.24 L90.752,24.224 C89.5573333,25.952 87.8613333,26.816 85.664,26.816 C84.0853333,26.816 82.896,26.3413333 82.096,25.392 C81.296,24.4426667 80.896,23.1253333 80.896,21.44 L80.896,9.184 L86.592,9.184 L86.592,20.704 C86.592,21.4293333 86.704,21.936 86.928,22.224 C87.152,22.512 87.488,22.656 87.936,22.656 C88.3413333,22.656 88.7413333,22.512 89.136,22.224 C89.5306667,21.936 89.8986667,21.5146667 90.24,20.96 L90.24,9.184 L95.936,9.184 L95.936,26.24 Z" id="u"></path>
            <path d="M105.696,8.608 C106.933333,8.608 108.112,8.8 109.232,9.184 C110.352,9.568 111.306667,10.0906667 112.096,10.752 L110.048,13.888 C108.682667,13.0346667 107.306667,12.608 105.92,12.608 C105.322667,12.608 104.88,12.6986667 104.592,12.88 C104.304,13.0613333 104.16,13.312 104.16,13.632 C104.16,13.9093333 104.234667,14.1333333 104.384,14.304 C104.533333,14.4746667 104.848,14.6613333 105.328,14.864 C105.808,15.0666667 106.570667,15.328 107.616,15.648 C109.365333,16.16 110.656,16.8266667 111.488,17.648 C112.32,18.4693333 112.736,19.616 112.736,21.088 C112.736,22.24 112.4,23.248 111.728,24.112 C111.056,24.976 110.128,25.6426667 108.944,26.112 C107.76,26.5813333 106.421333,26.816 104.928,26.816 C103.477333,26.816 102.117333,26.5866667 100.848,26.128 C99.5786667,25.6693333 98.5066667,25.0346667 97.632,24.224 L100.352,21.184 C101.013333,21.696 101.722667,22.1013333 102.48,22.4 C103.237333,22.6986667 104,22.848 104.768,22.848 C105.450667,22.848 105.978667,22.736 106.352,22.512 C106.725333,22.288 106.912,21.952 106.912,21.504 C106.912,21.1626667 106.832,20.896 106.672,20.704 C106.512,20.512 106.208,20.3253333 105.76,20.144 C105.312,19.9626667 104.544,19.712 103.456,19.392 C100.149333,18.4106667 98.496,16.608 98.496,13.984 C98.496,12.9813333 98.784,12.0693333 99.36,11.248 C99.936,10.4266667 100.762667,9.78133333 101.84,9.312 C102.917333,8.84266667 104.202667,8.608 105.696,8.608 Z" id="s"></path>
        </g>
        <g id="Group" transform="translate(37.000000, 0.000000)">
            <g id="arrow-out">
                <use fill="#FFBF2A" xlink:href="#path-2"></use>
                <use fill-opacity="0.87" fill="url(#linearGradient-1)" style="mix-blend-mode: overlay;" xlink:href="#path-2"></use>
            </g>
            <path d="M47.9992723,32.876 L54.3577709,34.0322602 L53.6422291,37.9677398 L47.9992723,36.94 L47.9992723,32.876 Z M48,22 L49.4612723,23.044 L47.9992723,24.344 L48,22 Z" id="bug-shadow" fill="#000000" opacity="0.200895764"></path>
            <path d="M32,10 C37.5228475,10 42,14.4771525 42,20 C42,20.6842022 41.9312861,21.3523553 41.8003827,21.9979351 C42.1020247,22.2244646 42.3919548,22.468923 42.667136,22.7288319 L49.6712723,16.5051814 L52.3287277,19.4948186 L44.9814948,26.0267046 C45.5093621,27.2445761 45.801961,28.588118 45.801961,30 C45.801961,30.4880794 45.766228,30.9752743 45.6951477,31.4576891 L54.3577709,33.0322602 L53.6422291,36.9677398 L44.9232723,35.381 L43.7292723,41.351 L51.5364426,50.7196312 L48.4635574,53.2803688 L42.0772178,45.6160538 C40.2605938,48.290639 37.1996079,50 33.801961,50 L30.198039,50 C26.8003921,50 23.7394062,48.290639 21.9227822,45.6160538 L15.5364426,53.2803688 L12.4635574,50.7196312 L20.2692723,41.351 L18.7792723,33.901 L21.4409301,32 L18.2006973,29.6873698 C18.2396369,28.4061335 18.5255175,27.1669285 19.0201701,26.0270086 L11.6712723,19.4948186 L14.3287277,16.5051814 L21.330517,22.7292604 C21.605343,22.4691818 21.8956148,22.2240371 22.2002606,21.9954338 C22.0686428,21.351664 22,20.6838482 22,20 C22,14.4771525 26.4771525,10 32,10 Z M32,14 C28.6862915,14 26,16.6862915 26,20 L26.005897,20.2431759 C26.0824967,20.2260017 26.1594929,20.2096702 26.2368777,20.1941932 C26.8826095,20.0650469 27.5395192,20 28.198039,20 L35.801961,20 C36.5547668,20 37.2881439,20.0831844 37.9934018,20.2408627 L38,20 C38,16.6862915 35.3137085,14 32,14 Z M36.686238,24.0647065 L36.7951167,24.0818151 L36.6735387,24.0628448 L36.6735387,24.0628448 L36.6192723,24.055 L36.5683224,24.0484834 C36.5288964,24.043457 36.4893509,24.0388133 36.4496896,24.034556 C36.3519783,24.0240676 36.2535648,24.015925 36.1545065,24.0101854 L35.801961,24 L28.198039,24 C28.0004831,24 27.8031686,24.009757 27.6068133,24.0292 L27.560046,24.0357545 C27.3797918,24.0532754 27.1998551,24.0808134 27.0213422,24.1165159 L26.7586614,24.1750949 C26.751941,24.1767501 26.7452259,24.1784163 26.7385161,24.1800933 L26.6500884,24.2029028 L26.523964,24.2379164 L26.523964,24.2379164 L26.4282723,24.266 L26.4813164,24.2504253 L26.3732723,24.283 L26.3342723,24.296 L26.2630212,24.3198744 L26.2630212,24.3198744 L26.217341,24.3355772 L26.1422723,24.362 L26.1182723,24.371 L26.1285479,24.3672857 L26.1152723,24.372 L26.1102723,24.374 L26.0909631,24.3811847 L26.0909631,24.3811847 L26.0622723,24.392 L26.000623,24.415772 L26.000623,24.415772 L25.9660999,24.4294344 L25.8265835,24.4872057 L25.8265835,24.4872057 L25.6891659,24.5482178 L25.6550267,24.5640243 L25.6329635,24.5743794 L25.6329635,24.5743794 L25.4313693,24.6741959 L25.4159347,24.6822333 L25.4159347,24.6822333 L25.3400069,24.7226142 L25.3400069,24.7226142 L25.2732723,24.759 L25.2498885,24.7723928 L25.2498885,24.7723928 C25.1157755,24.8479936 24.9851643,24.9284766 24.8582447,25.0135571 L24.7361632,25.0976121 L24.7361632,25.0976121 C24.7009289,25.1225198 24.6657669,25.1479573 24.6309137,25.1737537 L24.6189763,25.1826121 L24.5540226,25.2316288 L24.4550066,25.3090788 L24.4102723,25.345 L24.3032723,25.434 L24.2872723,25.448 L24.276377,25.4576276 L24.276377,25.4576276 L24.2861251,25.4492141 C24.2263414,25.5007005 24.16764,25.5533119 24.1100475,25.607008 L24.0912723,25.624 L24.0702723,25.644 L24.0573083,25.6567768 L24.0573083,25.6567768 L24.0502723,25.663 L24.0227225,25.6900793 L24.0227225,25.6900793 L23.9792723,25.732 L23.9246694,25.7874636 L23.9246694,25.7874636 L23.8460405,25.8688915 C23.8254652,25.8906053 23.8051363,25.9123807 23.7849746,25.9343009 L23.8042723,25.913 L23.6721589,26.0604698 C23.5590647,26.1905835 23.4516718,26.3254157 23.3502645,26.4645398 L23.2982723,26.536 L23.2805464,26.5622135 L23.2805464,26.5622135 L23.2402723,26.62 L23.2042723,26.673 L23.1845396,26.7038154 L23.1845396,26.7038154 L23.1552723,26.748 L23.1496064,26.7575636 L23.1496064,26.7575636 L23.1072723,26.824 L23.0632723,26.895 L23.0329251,26.946764 L23.0329251,26.946764 L23.032161,26.948056 L22.9992723,27.004 L22.9782723,27.04 L22.9712723,27.053 L22.9652723,27.063 L22.9190323,27.1479901 L22.9190323,27.1479901 L22.8852723,27.211 L22.8660395,27.2481897 L22.8660395,27.2481897 L22.8192723,27.339 L22.8624595,27.2551268 C22.7388057,27.4951094 22.631097,27.7437399 22.5404268,27.9993784 L22.478931,28.1820292 C22.213603,29.0141099 22.1269906,29.9145879 22.2554027,30.8289999 L22.314555,31.1766968 L24.314555,41.1766968 C24.394473,41.576287 24.5129939,41.9599253 24.6657675,42.3240456 C25.5297314,44.4507179 27.593065,46 31,46 L33,46 C36.5729167,46 38.4852015,44.5207443 39.3423545,42.33561 L39.3334519,42.3259053 C39.4418913,42.0676954 39.5331034,41.7996639 39.6055361,41.5230831 L39.685445,41.1766968 L40.3195574,38 L40.3202723,37.999 L40.9212291,35 L41.685445,31.1766968 L41.7162291,31 L41.7162723,31 L41.7363408,30.8849497 C41.7800077,30.5921244 41.801961,30.2963339 41.801961,30 C41.801961,29.3152796 41.6872642,28.6573481 41.4760354,28.0443701 L41.460252,27.9991582 L41.391892,27.8155126 L41.3657101,27.7497207 L41.3657101,27.7497207 L41.3387772,27.6843132 C41.3130864,27.6229587 41.2864056,27.5621217 41.2587547,27.5018221 L41.2982723,27.592 L41.202402,27.3824329 C41.1659545,27.3073753 41.1279884,27.2331918 41.0885435,27.1599222 L41.0812723,27.147 L41.0752723,27.136 L41.0682723,27.123 L41.035479,27.0634885 L41.035479,27.0634885 L41.0272723,27.05 L41.0212723,27.04 L40.9807083,26.9681426 L40.9807083,26.9681426 L40.9682723,26.948 L40.8457126,26.7489653 C40.7526854,26.6049375 40.6536571,26.4651492 40.5489813,26.3299541 L40.5272723,26.302 L40.4752723,26.237 L40.4286659,26.1795846 L40.4286659,26.1795846 L40.4016293,26.1471115 L40.3367863,26.0710705 L40.3367863,26.0710705 L40.2732723,25.999 L40.1955343,25.9138274 L40.1955343,25.9138274 L40.1211539,25.8362521 L39.9487278,25.6635917 C39.9350732,25.6505306 39.921357,25.6375334 39.9075798,25.6246005 L39.8882723,25.607 L39.741968,25.4754896 L39.741968,25.4754896 L39.8252723,25.549 L39.8106374,25.5355677 L39.8106374,25.5355677 L39.7212723,25.457 L39.741968,25.4754896 C39.60377,25.3549759 39.4600175,25.2407072 39.3111458,25.1331165 C39.2906635,25.1178727 39.2697475,25.1029671 39.2487323,25.0881929 L39.2782723,25.11 L39.1963749,25.0521933 C39.1577904,25.0256572 39.1188809,24.9995616 39.0796535,24.9739138 L39.0649377,24.9639818 L39.0338076,24.9442353 L39.0012723,24.923 L38.9462723,24.889 L38.9147118,24.8695717 L38.9147118,24.8695717 L38.8972723,24.859 L38.8742723,24.845 L38.8630172,24.8387619 L38.793055,24.7975515 L38.793055,24.7975515 L38.8342723,24.822 L38.7672723,24.783 L38.6782723,24.733 L38.7322723,24.763 L38.6798247,24.7339351 L38.6798247,24.7339351 L38.6582723,24.722 L38.6562723,24.721 L38.6452723,24.715 L38.5982723,24.69 L38.5832723,24.682 L38.5472723,24.664 L38.5142723,24.647 L38.5382723,24.659 L38.5154927,24.6473929 L38.5154927,24.6473929 L38.4434686,24.6112503 L38.4434686,24.6112503 L38.3961329,24.5883999 C38.2935838,24.5391305 38.1894207,24.4926943 38.0837445,24.4491917 L37.8606589,24.3625047 C37.7662315,24.3280125 37.6706946,24.2958252 37.5741163,24.2660107 L37.4802097,24.2378863 L37.4382723,24.226 L37.3483219,24.2011578 L37.3483219,24.2011578 L37.2462723,24.175 L37.3432357,24.1998207 L37.1999757,24.1637419 L37.1999757,24.1637419 L37.1362723,24.149 L37.0975333,24.1402379 L37.0975333,24.1402379 L37.0702723,24.134 L37.0712723,24.134 L37.0662723,24.133 L37.0702723,24.134 L37.0553744,24.1311227 L37.0553744,24.1311227 L36.9832723,24.116 L37.0382723,24.128 L36.9452723,24.109 L36.9382723,24.108 L36.9392723,24.108 L36.9312723,24.106 L36.925741,24.1050676 L36.8322723,24.088 L36.7951167,24.0818151 L36.7951167,24.0818151 L36.8312723,24.088 L36.686238,24.0647065 L36.686238,24.0647065 Z" id="bug" fill="#0C94D8" fill-rule="nonzero"></path>
            <g id="arrow-in">
                <use fill="#00C6EB" xlink:href="#path-4"></use>
                <use fill-opacity="0.32" fill="url(#linearGradient-3)" style="mix-blend-mode: overlay;" xlink:href="#path-4"></use>
            </g>
        </g>
    </g>
</svg>