<?xml version="1.0" encoding="UTF-8"?>
<svg width="230px" height="64px" viewBox="0 0 230 64" version="1.1" xmlns="http://www.w3.org/2000/svg" xmlns:xlink="http://www.w3.org/1999/xlink">
    <title>wordmark/small-outlinetext</title>
    <defs>
        <linearGradient x1="15.8779708%" y1="0%" x2="74.5%" y2="100%" id="linearGradient-1">
            <stop stop-color="#FFFFFF" stop-opacity="0.5" offset="0%"></stop>
            <stop stop-color="#000000" stop-opacity="0.0346679688" offset="100%"></stop>
        </linearGradient>
        <polygon id="path-2" points="48 22 48 42 62 32"></polygon>
        <linearGradient x1="17.6168369%" y1="0%" x2="74.5%" y2="100%" id="linearGradient-3">
            <stop stop-color="#FFFFFF" stop-opacity="0.5" offset="0%"></stop>
            <stop stop-color="#000000" stop-opacity="0.5" offset="100%"></stop>
        </linearGradient>
        <polygon id="path-4" points="5 22 5 42 19 32"></polygon>
    </defs>
    <g id="wordmark/small-outlinetext" stroke="none" stroke-width="1" fill="none" fill-rule="evenodd">
        <g id="Gropius" transform="translate(81.026000, 13.840000)" fill="#000000" fill-rule="nonzero">
            <path d="M12.92,4.066 C14.7946667,4.066 16.4983333,4.36366667 18.031,4.959 C19.5636667,5.55433333 20.9,6.37133333 22.04,7.41 L18.43,11.134 C17.5686667,10.3993333 16.7516667,9.86733333 15.979,9.538 C15.2063333,9.20866667 14.326,9.044 13.338,9.044 C11.438,9.044 9.94966667,9.77866667 8.873,11.248 C7.79633333,12.7173333 7.258,14.9593333 7.258,17.974 C7.258,20.178 7.43533333,21.9196667 7.79,23.199 C8.14466667,24.4783333 8.683,25.3966667 9.405,25.954 C10.127,26.5113333 11.058,26.79 12.198,26.79 C13.3633333,26.79 14.402,26.5366667 15.314,26.03 L15.314,20.634 L12.312,20.634 L11.628,15.808 L22.116,15.808 L22.116,28.956 C20.7226667,29.868 19.1646667,30.5773333 17.442,31.084 C15.7193333,31.5906667 14.022,31.844 12.35,31.844 C4.11666667,31.844 0,27.208 0,17.936 C0,15.048 0.563666667,12.559 1.691,10.469 C2.81833333,8.379 4.35733333,6.78933333 6.308,5.7 C8.25866667,4.61066667 10.4626667,4.066 12.92,4.066 Z" id="G"></path>
            <path d="M37.24,10.298 C37.8986667,10.298 38.5826667,10.412 39.292,10.64 L38.19,17.176 C37.5313333,16.9733333 36.9233333,16.872 36.366,16.872 C35.226,16.872 34.3583333,17.2583333 33.763,18.031 C33.1676667,18.8036667 32.7053333,19.9626667 32.376,21.508 L32.376,31.16 L25.612,31.16 L25.612,10.906 L31.502,10.906 L32.072,14.744 C32.5026667,13.4013333 33.1866667,12.3246667 34.124,11.514 C35.0613333,10.7033333 36.1,10.298 37.24,10.298 Z" id="r"></path>
            <path d="M49.742,10.222 C52.9086667,10.222 55.3913333,11.172 57.19,13.072 C58.9886667,14.972 59.888,17.632 59.888,21.052 C59.888,23.2306667 59.4826667,25.1306667 58.672,26.752 C57.8613333,28.3733333 56.6896667,29.6273333 55.157,30.514 C53.6243333,31.4006667 51.8193333,31.844 49.742,31.844 C46.5753333,31.844 44.0926667,30.894 42.294,28.994 C40.4953333,27.094 39.596,24.434 39.596,21.014 C39.596,18.8353333 40.0013333,16.9353333 40.812,15.314 C41.6226667,13.6926667 42.7943333,12.4386667 44.327,11.552 C45.8596667,10.6653333 47.6646667,10.222 49.742,10.222 Z M49.742,15.124 C48.6526667,15.124 47.8483333,15.599 47.329,16.549 C46.8096667,17.499 46.55,18.9873333 46.55,21.014 C46.55,23.1166667 46.8096667,24.6303333 47.329,25.555 C47.8483333,26.4796667 48.6526667,26.942 49.742,26.942 C50.8313333,26.942 51.6356667,26.467 52.155,25.517 C52.6743333,24.567 52.934,23.0786667 52.934,21.052 C52.934,18.9746667 52.6743333,17.4673333 52.155,16.53 C51.6356667,15.5926667 50.8313333,15.124 49.742,15.124 Z" id="o"></path>
            <path d="M74.746,10.222 C77.33,10.222 79.2616667,11.1593333 80.541,13.034 C81.8203333,14.9086667 82.46,17.556 82.46,20.976 C82.46,23.0533333 82.1306667,24.9153333 81.472,26.562 C80.8133333,28.2086667 79.8696667,29.5006667 78.641,30.438 C77.4123333,31.3753333 76,31.844 74.404,31.844 C72.3773333,31.844 70.7686667,31.16 69.578,29.792 L69.578,38.988 L62.814,39.672 L62.814,10.906 L68.818,10.906 L69.084,13.034 C69.8693333,12.0713333 70.7686667,11.362 71.782,10.906 C72.7953333,10.45 73.7833333,10.222 74.746,10.222 Z M72.238,26.98 C74.3913333,26.98 75.468,25.004 75.468,21.052 C75.468,18.7466667 75.2273333,17.1823333 74.746,16.359 C74.2646667,15.5356667 73.53,15.124 72.542,15.124 C71.3766667,15.124 70.3886667,15.8333333 69.578,17.252 L69.578,25.384 C69.958,25.9413333 70.357,26.3466667 70.775,26.6 C71.193,26.8533333 71.6806667,26.98 72.238,26.98 Z" id="p"></path>
            <path d="M92.302,31.16 L85.538,31.16 L85.538,10.906 L92.302,10.906 L92.302,31.16 Z M88.92,3.55271368e-15 C90.06,3.55271368e-15 90.991,0.354666667 91.713,1.064 C92.435,1.77333333 92.796,2.66 92.796,3.724 C92.796,4.788 92.435,5.67466667 91.713,6.384 C90.991,7.09333333 90.06,7.448 88.92,7.448 C87.78,7.448 86.849,7.09333333 86.127,6.384 C85.405,5.67466667 85.044,4.788 85.044,3.724 C85.044,2.66 85.405,1.77333333 86.127,1.064 C86.849,0.354666667 87.78,3.55271368e-15 88.92,3.55271368e-15 Z" id="i"></path>
            <path d="M113.924,31.16 L108.034,31.16 L107.768,28.766 C106.349333,30.818 104.335333,31.844 101.726,31.844 C99.8513333,31.844 98.439,31.2803333 97.489,30.153 C96.539,29.0256667 96.064,27.4613333 96.064,25.46 L96.064,10.906 L102.828,10.906 L102.828,24.586 C102.828,25.4473333 102.961,26.049 103.227,26.391 C103.493,26.733 103.892,26.904 104.424,26.904 C104.905333,26.904 105.380333,26.733 105.849,26.391 C106.317667,26.049 106.754667,25.5486667 107.16,24.89 L107.16,10.906 L113.924,10.906 L113.924,31.16 Z" id="u"></path>
            <path d="M125.514,10.222 C126.983333,10.222 128.383,10.45 129.713,10.906 C131.043,11.362 132.176667,11.9826667 133.114,12.768 L130.682,16.492 C129.060667,15.4786667 127.426667,14.972 125.78,14.972 C125.070667,14.972 124.545,15.0796667 124.203,15.295 C123.861,15.5103333 123.69,15.808 123.69,16.188 C123.69,16.5173333 123.778667,16.7833333 123.956,16.986 C124.133333,17.1886667 124.507,17.4103333 125.077,17.651 C125.647,17.8916667 126.552667,18.202 127.794,18.582 C129.871333,19.19 131.404,19.9816667 132.392,20.957 C133.38,21.9323333 133.874,23.294 133.874,25.042 C133.874,26.41 133.475,27.607 132.677,28.633 C131.879,29.659 130.777,30.4506667 129.371,31.008 C127.965,31.5653333 126.375333,31.844 124.602,31.844 C122.879333,31.844 121.264333,31.5716667 119.757,31.027 C118.249667,30.4823333 116.976667,29.7286667 115.938,28.766 L119.168,25.156 C119.953333,25.764 120.795667,26.2453333 121.695,26.6 C122.594333,26.9546667 123.5,27.132 124.412,27.132 C125.222667,27.132 125.849667,26.999 126.293,26.733 C126.736333,26.467 126.958,26.068 126.958,25.536 C126.958,25.1306667 126.863,24.814 126.673,24.586 C126.483,24.358 126.122,24.1363333 125.59,23.921 C125.058,23.7056667 124.146,23.408 122.854,23.028 C118.927333,21.8626667 116.964,19.722 116.964,16.606 C116.964,15.4153333 117.306,14.3323333 117.99,13.357 C118.674,12.3816667 119.655667,11.6153333 120.935,11.058 C122.214333,10.5006667 123.740667,10.222 125.514,10.222 Z" id="s"></path>
        </g>
        <g id="Group" transform="translate(9.000000, 0.000000)">
            <g id="arrow-out">
                <use fill="#FFBF2A" xlink:href="#path-2"></use>
                <use fill-opacity="0.87" fill="url(#linearGradient-1)" style="mix-blend-mode: overlay;" xlink:href="#path-2"></use>
            </g>
            <path d="M47.9992723,32.876 L54.3577709,34.0322602 L53.6422291,37.9677398 L47.9992723,36.94 L47.9992723,32.876 Z M48,22 L49.4612723,23.044 L47.9992723,24.344 L48,22 Z" id="bug-shadow" fill="#000000" opacity="0.200895764"></path>
            <path d="M32,10 C37.5228475,10 42,14.4771525 42,20 C42,20.6842022 41.9312861,21.3523553 41.8003827,21.9979351 C42.1020247,22.2244646 42.3919548,22.468923 42.667136,22.7288319 L49.6712723,16.5051814 L52.3287277,19.4948186 L44.9814948,26.0267046 C45.5093621,27.2445761 45.801961,28.588118 45.801961,30 C45.801961,30.4880794 45.766228,30.9752743 45.6951477,31.4576891 L54.3577709,33.0322602 L53.6422291,36.9677398 L44.9232723,35.381 L43.7292723,41.351 L51.5364426,50.7196312 L48.4635574,53.2803688 L42.0772178,45.6160538 C40.2605938,48.290639 37.1996079,50 33.801961,50 L30.198039,50 C26.8003921,50 23.7394062,48.290639 21.9227822,45.6160538 L15.5364426,53.2803688 L12.4635574,50.7196312 L20.2692723,41.351 L18.7792723,33.901 L21.4409301,32 L18.2006973,29.6873698 C18.2396369,28.4061335 18.5255175,27.1669285 19.0201701,26.0270086 L11.6712723,19.4948186 L14.3287277,16.5051814 L21.330517,22.7292604 C21.605343,22.4691818 21.8956148,22.2240371 22.2002606,21.9954338 C22.0686428,21.351664 22,20.6838482 22,20 C22,14.4771525 26.4771525,10 32,10 Z M32,14 C28.6862915,14 26,16.6862915 26,20 L26.005897,20.2431759 C26.0824967,20.2260017 26.1594929,20.2096702 26.2368777,20.1941932 C26.8826095,20.0650469 27.5395192,20 28.198039,20 L35.801961,20 C36.5547668,20 37.2881439,20.0831844 37.9934018,20.2408627 L38,20 C38,16.6862915 35.3137085,14 32,14 Z M36.686238,24.0647065 L36.7951167,24.0818151 L36.6735387,24.0628448 L36.6735387,24.0628448 L36.6192723,24.055 L36.5683224,24.0484834 C36.5288964,24.043457 36.4893509,24.0388133 36.4496896,24.034556 C36.3519783,24.0240676 36.2535648,24.015925 36.1545065,24.0101854 L35.801961,24 L28.198039,24 C28.0004831,24 27.8031686,24.009757 27.6068133,24.0292 L27.560046,24.0357545 C27.3797918,24.0532754 27.1998551,24.0808134 27.0213422,24.1165159 L26.7586614,24.1750949 C26.751941,24.1767501 26.7452259,24.1784163 26.7385161,24.1800933 L26.6500884,24.2029028 L26.523964,24.2379164 L26.523964,24.2379164 L26.4282723,24.266 L26.4813164,24.2504253 L26.3732723,24.283 L26.3342723,24.296 L26.2630212,24.3198744 L26.2630212,24.3198744 L26.217341,24.3355772 L26.1422723,24.362 L26.1182723,24.371 L26.1285479,24.3672857 L26.1152723,24.372 L26.1102723,24.374 L26.0909631,24.3811847 L26.0909631,24.3811847 L26.0622723,24.392 L26.000623,24.415772 L26.000623,24.415772 L25.9660999,24.4294344 L25.8265835,24.4872057 L25.8265835,24.4872057 L25.6891659,24.5482178 L25.6550267,24.5640243 L25.6329635,24.5743794 L25.6329635,24.5743794 L25.4313693,24.6741959 L25.4159347,24.6822333 L25.4159347,24.6822333 L25.3400069,24.7226142 L25.3400069,24.7226142 L25.2732723,24.759 L25.2498885,24.7723928 L25.2498885,24.7723928 C25.1157755,24.8479936 24.9851643,24.9284766 24.8582447,25.0135571 L24.7361632,25.0976121 L24.7361632,25.0976121 C24.7009289,25.1225198 24.6657669,25.1479573 24.6309137,25.1737537 L24.6189763,25.1826121 L24.5540226,25.2316288 L24.4550066,25.3090788 L24.4102723,25.345 L24.3032723,25.434 L24.2872723,25.448 L24.276377,25.4576276 L24.276377,25.4576276 L24.2861251,25.4492141 C24.2263414,25.5007005 24.16764,25.5533119 24.1100475,25.607008 L24.0912723,25.624 L24.0702723,25.644 L24.0573083,25.6567768 L24.0573083,25.6567768 L24.0502723,25.663 L24.0227225,25.6900793 L24.0227225,25.6900793 L23.9792723,25.732 L23.9246694,25.7874636 L23.9246694,25.7874636 L23.8460405,25.8688915 C23.8254652,25.8906053 23.8051363,25.9123807 23.7849746,25.9343009 L23.8042723,25.913 L23.6721589,26.0604698 C23.5590647,26.1905835 23.4516718,26.3254157 23.3502645,26.4645398 L23.2982723,26.536 L23.2805464,26.5622135 L23.2805464,26.5622135 L23.2402723,26.62 L23.2042723,26.673 L23.1845396,26.7038154 L23.1845396,26.7038154 L23.1552723,26.748 L23.1496064,26.7575636 L23.1496064,26.7575636 L23.1072723,26.824 L23.0632723,26.895 L23.0329251,26.946764 L23.0329251,26.946764 L23.032161,26.948056 L22.9992723,27.004 L22.9782723,27.04 L22.9712723,27.053 L22.9652723,27.063 L22.9190323,27.1479901 L22.9190323,27.1479901 L22.8852723,27.211 L22.8660395,27.2481897 L22.8660395,27.2481897 L22.8192723,27.339 L22.8624595,27.2551268 C22.7388057,27.4951094 22.631097,27.7437399 22.5404268,27.9993784 L22.478931,28.1820292 C22.213603,29.0141099 22.1269906,29.9145879 22.2554027,30.8289999 L22.314555,31.1766968 L24.314555,41.1766968 C24.394473,41.576287 24.5129939,41.9599253 24.6657675,42.3240456 C25.5297314,44.4507179 27.593065,46 31,46 L33,46 C36.5729167,46 38.4852015,44.5207443 39.3423545,42.33561 L39.3334519,42.3259053 C39.4418913,42.0676954 39.5331034,41.7996639 39.6055361,41.5230831 L39.685445,41.1766968 L40.3195574,38 L40.3202723,37.999 L40.9212291,35 L41.685445,31.1766968 L41.7162291,31 L41.7162723,31 L41.7363408,30.8849497 C41.7800077,30.5921244 41.801961,30.2963339 41.801961,30 C41.801961,29.3152796 41.6872642,28.6573481 41.4760354,28.0443701 L41.460252,27.9991582 L41.391892,27.8155126 L41.3657101,27.7497207 L41.3657101,27.7497207 L41.3387772,27.6843132 C41.3130864,27.6229587 41.2864056,27.5621217 41.2587547,27.5018221 L41.2982723,27.592 L41.202402,27.3824329 C41.1659545,27.3073753 41.1279884,27.2331918 41.0885435,27.1599222 L41.0812723,27.147 L41.0752723,27.136 L41.0682723,27.123 L41.035479,27.0634885 L41.035479,27.0634885 L41.0272723,27.05 L41.0212723,27.04 L40.9807083,26.9681426 L40.9807083,26.9681426 L40.9682723,26.948 L40.8457126,26.7489653 C40.7526854,26.6049375 40.6536571,26.4651492 40.5489813,26.3299541 L40.5272723,26.302 L40.4752723,26.237 L40.4286659,26.1795846 L40.4286659,26.1795846 L40.4016293,26.1471115 L40.3367863,26.0710705 L40.3367863,26.0710705 L40.2732723,25.999 L40.1955343,25.9138274 L40.1955343,25.9138274 L40.1211539,25.8362521 L39.9487278,25.6635917 C39.9350732,25.6505306 39.921357,25.6375334 39.9075798,25.6246005 L39.8882723,25.607 L39.741968,25.4754896 L39.741968,25.4754896 L39.8252723,25.549 L39.8106374,25.5355677 L39.8106374,25.5355677 L39.7212723,25.457 L39.741968,25.4754896 C39.60377,25.3549759 39.4600175,25.2407072 39.3111458,25.1331165 C39.2906635,25.1178727 39.2697475,25.1029671 39.2487323,25.0881929 L39.2782723,25.11 L39.1963749,25.0521933 C39.1577904,25.0256572 39.1188809,24.9995616 39.0796535,24.9739138 L39.0649377,24.9639818 L39.0338076,24.9442353 L39.0012723,24.923 L38.9462723,24.889 L38.9147118,24.8695717 L38.9147118,24.8695717 L38.8972723,24.859 L38.8742723,24.845 L38.8630172,24.8387619 L38.793055,24.7975515 L38.793055,24.7975515 L38.8342723,24.822 L38.7672723,24.783 L38.6782723,24.733 L38.7322723,24.763 L38.6798247,24.7339351 L38.6798247,24.7339351 L38.6582723,24.722 L38.6562723,24.721 L38.6452723,24.715 L38.5982723,24.69 L38.5832723,24.682 L38.5472723,24.664 L38.5142723,24.647 L38.5382723,24.659 L38.5154927,24.6473929 L38.5154927,24.6473929 L38.4434686,24.6112503 L38.4434686,24.6112503 L38.3961329,24.5883999 C38.2935838,24.5391305 38.1894207,24.4926943 38.0837445,24.4491917 L37.8606589,24.3625047 C37.7662315,24.3280125 37.6706946,24.2958252 37.5741163,24.2660107 L37.4802097,24.2378863 L37.4382723,24.226 L37.3483219,24.2011578 L37.3483219,24.2011578 L37.2462723,24.175 L37.3432357,24.1998207 L37.1999757,24.1637419 L37.1999757,24.1637419 L37.1362723,24.149 L37.0975333,24.1402379 L37.0975333,24.1402379 L37.0702723,24.134 L37.0712723,24.134 L37.0662723,24.133 L37.0702723,24.134 L37.0553744,24.1311227 L37.0553744,24.1311227 L36.9832723,24.116 L37.0382723,24.128 L36.9452723,24.109 L36.9382723,24.108 L36.9392723,24.108 L36.9312723,24.106 L36.925741,24.1050676 L36.8322723,24.088 L36.7951167,24.0818151 L36.7951167,24.0818151 L36.8312723,24.088 L36.686238,24.0647065 L36.686238,24.0647065 Z" id="bug" fill="#0C94D8" fill-rule="nonzero"></path>
            <g id="arrow-in">
                <use fill="#00C6EB" xlink:href="#path-4"></use>
                <use fill-opacity="0.32" fill="url(#linearGradient-3)" style="mix-blend-mode: overlay;" xlink:href="#path-4"></use>
            </g>
        </g>
    </g>
</svg>